Coordinates
version=1
nRows=11
nColumns=40
inDegrees=yes

Units are S.I. units (second, meters, Newtons, ...)
Angles are in degrees.

endheader
time	pelvis_tilt	pelvis_list	pelvis_rotation	pelvis_tx	pelvis_ty	pelvis_tz	hip_flexion_r	hip_adduction_r	hip_rotation_r	knee_angle_r	knee_angle_r_beta	ankle_angle_r	subtalar_angle_r	mtp_angle_r	hip_flexion_l	hip_adduction_l	hip_rotation_l	knee_angle_l	knee_angle_l_beta	ankle_angle_l	subtalar_angle_l	mtp_angle_l	lumbar_extension	lumbar_bending	lumbar_rotation	arm_flex_r	arm_add_r	arm_rot_r	elbow_flex_r	pro_sup_r	wrist_flex_r	wrist_dev_r	arm_flex_l	arm_add_l	arm_rot_l	elbow_flex_l	pro_sup_l	wrist_flex_l	wrist_dev_l
     20.07500000	     -5.86731170	     -3.88997024	      4.41622646	      1.05099173	      0.92056229	      0.42961790	      9.97582908	     -2.91436764	    -11.21654169	     41.96979018	     41.96979018	     10.83306044	    -12.56233933	    -10.54615377	     27.53283397	     -4.00766135	     -4.41858904	     24.11059891	     24.11059891	      6.45876376	     -9.51493023	      0.11285004	     -7.81043128	      2.74770127	      2.48285187	     28.40717331	    -14.30640665	      5.84233064	    103.66027526	     44.33083622	      0.00000000	      0.00000000	     -4.89845421	     -7.90214438	     -3.63423610	     28.24554631	     45.41488719	      0.00000000	      0.00000000
     20.08742857	     -5.91441075	     -3.79446235	      4.08526272	      1.05052708	      0.92162621	      0.42809260	     12.11708553	     -3.44505365	    -10.80062724	     45.98590096	     45.98590096	      9.42552824	    -14.57377699	     -9.75319154	     26.85568704	     -4.02027277	     -4.99969939	     23.85569470	     23.85569470	      6.95585224	     -9.06115727	     -0.25188632	     -7.86704360	      2.57430392	      2.53775987	     26.46887175	    -14.33527276	      6.01054210	    101.78225212	     44.38399761	      0.00000000	      0.00000000	     -3.87327019	     -8.12361887	     -3.77617693	     28.98307315	     45.45867012	      0.00000000	      0.00000000
     20.09985714	     -5.90332434	     -3.68231149	      3.72395575	      1.04996917	      0.92264703	      0.42670412	     14.24315877	     -3.96871382	    -10.40628114	     49.88515734	     49.88515734	      8.20617913	    -16.28387819	     -8.62258410	     26.12044149	     -4.01594521	     -5.55624079	     23.60259819	     23.60259819	      7.40107195	     -8.64603290	     -0.61001087	     -7.98917389	      2.39591117	      2.53985342	     24.54976764	    -14.25910590	      6.16535488	     99.72523814	     44.44225856	      0.00000000	      0.00000000	     -2.84171895	     -8.38319766	     -3.91568861	     29.77738474	     45.50036545	      0.00000000	      0.00000000
     20.11228571	     -5.82571566	     -3.70598721	      3.40009093	      1.04933684	      0.92361388	      0.42557871	     16.51232017	     -4.23143309	     -9.94916293	     54.06024943	     54.06024943	      9.51191727	    -16.60267876	     -0.66544625	     25.35470063	     -4.16719756	     -6.10575990	     23.35914101	     23.35914101	      7.59986765	     -8.27356591	     -1.58498041	     -8.12295024	      2.34351750	      1.78062157	     23.52894559	    -13.36509388	      6.46556646	     95.56455120	     44.60732677	      0.00000000	      0.00000000	     -2.60049892	     -8.71747382	     -4.59212406	     31.82129439	     45.63845725	      0.00000000	      0.00000000
     20.12471429	     -5.74329405	     -3.63010315	      3.06123933	      1.04866284	      0.92452640	      0.42436392	     18.55716320	     -4.64854188	     -9.60651856	     57.47946380	     57.47946380	      9.04531046	    -17.59812596	      1.32916086	     24.56065037	     -4.15071586	     -6.50816677	     23.09693070	     23.09693070	      7.91186961	     -8.13039981	     -1.92034283	     -8.28758914	      2.23523867	      1.78329656	     21.75541054	    -13.27313473	      6.38553794	     92.69892920	     44.71098306	      0.00000000	      0.00000000	     -1.43621731	     -8.97061956	     -4.78148205	     32.61712501	     45.69726595	      0.00000000	      0.00000000
     20.13714286	     -5.65924862	     -3.56164318	      2.71460591	      1.04789218	      0.92533962	      0.42325938	     20.64156407	     -4.98817867	     -9.19316551	     60.71045321	     60.71045321	      9.21468692	    -18.13751541	      4.58742885	     23.77009670	     -4.10473424	     -6.76966844	     22.80128851	     22.80128851	      8.11016437	     -8.22934843	     -2.27329301	     -8.46639996	      2.14318062	      1.51479495	     20.26026445	    -12.88912153	      6.36080086	     89.28986578	     44.83266283	      0.00000000	      0.00000000	     -0.51509611	     -9.32837088	     -4.94821236	     33.51093793	     45.75145457	      0.00000000	      0.00000000
     20.14957143	     -5.55515443	     -3.51186817	      2.39578758	      1.04709592	      0.92612029	      0.42214101	     22.63906823	     -5.26558618	     -8.77161123	     63.54145822	     63.54145822	      9.45789555	    -18.43112111	      7.30957975	     22.98534481	     -4.04510935	     -6.93541466	     22.53757303	     22.53757303	      8.28304017	     -8.45062367	     -2.55756202	     -8.65902934	      2.10906510	      1.24719615	     18.76011636	    -12.67883078	      6.45265717	     85.87097139	     44.94835574	      0.00000000	      0.00000000	      0.46499769	     -9.66329225	     -5.08449679	     34.40689870	     45.80331759	      0.00000000	      0.00000000
     20.16200000	     -5.38859477	     -3.52288551	      2.09048050	      1.04628732	      0.92699801	      0.42103822	     24.44273908	     -5.40753642	     -8.34066596	     65.82912803	     65.82912803	      9.29908022	    -18.69096735	      8.40302483	     22.17056646	     -4.02975237	     -6.99816574	     22.32740529	     22.32740529	      8.51273211	     -8.74507379	     -2.64220556	     -8.92966497	      2.18002093	      1.30055656	     17.07955385	    -12.81540880	      6.40982678	     82.62913973	     45.05317027	      0.00000000	      0.00000000	      1.72202732	     -9.90870486	     -5.14952158	     35.19511996	     45.84039989	      0.00000000	      0.00000000
     20.17442857	     -5.32004895	     -3.51416196	      1.76128810	      1.04540596	      0.92767454	      0.42003233	     26.31176571	     -5.48561713	     -7.80673866	     67.72315391	     67.72315391	      8.99780116	    -18.82427613	      8.74828883	     21.47279417	     -4.00111510	     -7.11519071	     22.13454492	     22.13454492	      8.78761601	     -8.97044805	     -2.67241378	     -9.11436989	      2.22987977	      1.47186019	     15.18763717	    -13.19558465	      6.46034880	     79.91956285	     45.13282062	      0.00000000	      0.00000000	      3.00501569	    -10.12658964	     -5.21092069	     35.93934801	     45.87101477	      0.00000000	      0.00000000
     20.18685714	     -5.14239111	     -3.62197655	      1.49298419	      1.04455245	      0.92864229	      0.41912333	     27.94779831	     -5.31110445	     -7.28068843	     69.12714803	     69.12714803	      8.99013735	    -18.84055331	     10.01193615	     20.66252332	     -4.02666373	     -6.92088168	     21.90811596	     21.90811596	      8.93290443	     -9.61260031	     -2.64665415	     -9.34236709	      2.43907089	      1.01137347	     14.33749641	    -12.53849631	      5.75416723	     74.46045109	     45.33143450	      0.00000000	      0.00000000	      4.04852355	    -10.53351914	     -5.10664838	     36.43949434	     45.88704462	      0.00000000	      0.00000000
     20.19928571	     -5.01441033	     -3.74106816	      1.18690972	      1.04372208	      0.92943855	      0.41833660	     29.52573879	     -5.05242020	     -6.71096979	     70.04723302	     70.04723302	      8.61704157	    -18.82716855	     10.02634096	     19.96042176	     -4.13676343	     -6.97456231	     21.80885030	     21.80885030	      9.23109123	     -9.86940944	     -2.65233609	     -9.63053862	      2.68315348	      1.27728946	     12.28015361	    -13.12369392	      5.90178337	     71.97219692	     45.39878463	      0.00000000	      0.00000000	      5.35926092	    -10.67825146	     -5.19291638	     37.26258211	     45.92115890	      0.00000000	      0.00000000
